<svg width="21" height="18" viewBox="0 0 21 18" fill="none" xmlns="http://www.w3.org/2000/svg">
<path d="M10.1177 17.9105L10.1102 17.9075L10.0865 17.8955C9.94785 17.8247 9.81035 17.752 9.674 17.6775C8.03472 16.773 6.50276 15.7104 5.10354 14.5074C2.62554 12.3604 0 9.17431 0 5.25021C0 2.32213 2.65354 7.09531e-05 5.85631 7.09531e-05C6.74666 -0.00397858 7.62653 0.178416 8.4305 0.53369C9.23447 0.888964 9.94184 1.40797 10.5 2.05212C11.0583 1.40784 11.7658 0.888752 12.57 0.533472C13.3742 0.178193 14.2542 -0.00412916 15.1448 7.09531e-05C18.3465 7.09531e-05 21 2.32213 21 5.25021C21 9.17531 18.3745 12.3614 15.8965 14.5064C14.4973 15.7094 12.9653 16.772 11.326 17.6765C11.1897 17.7514 11.0522 17.8244 10.9135 17.8955L10.8898 17.9075L10.8823 17.9115L10.8791 17.9125C10.7623 17.97 10.6322 18 10.5 18C10.3678 18 10.2377 17.97 10.1209 17.9125L10.1177 17.9105Z" fill="white"/>
</svg>
